<?xml version="1.0" encoding="utf-8"?>
<!-- Generator: Adobe Illustrator 17.0.2, SVG Export Plug-In . SVG Version: 6.00 Build 0)  -->
<!DOCTYPE svg PUBLIC "-//W3C//DTD SVG 1.1//EN" "http://www.w3.org/Graphics/SVG/1.1/DTD/svg11.dtd">
<svg version="1.1" id="Layer_1" xmlns="http://www.w3.org/2000/svg" xmlns:xlink="http://www.w3.org/1999/xlink" x="0px" y="0px"
	 width="441.99px" height="107.864px" viewBox="0 0 441.99 107.864" enable-background="new 0 0 441.99 107.864"
	 xml:space="preserve">
<g id="mou">
	<g>
		<path d="M393.474,7.609c6.14-5.267,15.648-6.235,24.322-1.516c24.376,13.261,30.667,41.374,17.349,64.309
			c-9.959,17.151-25.711,24.861-43.573,30.748c-22.569,7.438-45.59,6.299-68.277,3.645c-29.305-3.428-57.842-10.924-83.361-26.793
			c-5.49-3.414-10.529-7.579-15.622-11.593c-3.112-2.453-5.91-2.649-8.903,0.014c-22.283,19.821-49.69,28.203-77.88,34.787
			c-20.509,4.79-41.263,7.989-62.352,6.111c-18.215-1.622-35.878-6.239-51.371-16.219C11.319,83.056,4.115,71.159,1.085,56.175
			c-3.163-15.638,0.618-28.75,11.022-40.088c6.677-7.276,19.85-11.647,31-7.115c-1.921,0.765-3.129,1.545-4.416,1.71
			c-8.374,1.077-13.457,6.58-15.292,13.902c-1.597,6.372-1.736,13.5-0.743,20.023c1.02,6.705,7.726,10.621,14.913,11.015
			c10.126,0.555,18.906-3.597,27.369-8.181c19.748-10.695,39.255-21.833,58.889-32.74C141.095,5.107,159.013-1.7,179.4,0.545
			c11.734,1.292,22.311,5.409,31.857,11.957c5.777,3.963,9.994,3.838,15.986-0.225C245.896-0.374,266.815-1.968,288.516,1.77
			c21.92,3.776,38.864,17.422,57.189,28.404c12.388,7.425,24.85,14.777,37.66,21.428c9.647,5.009,19.532,4.048,29.082-1.462
			c5.042-2.909,7.227-7.194,7.66-12.582c0.818-10.167-2.406-19.191-10.731-24.949C404.967,9.561,398.728,9.159,393.474,7.609z"/>
	</g>
</g>
</svg>
